<?xml version="1.0" encoding="UTF-8" standalone="no"?>
<!-- Created with Inkscape (http://www.inkscape.org/) -->

<svg
   width="128mm"
   height="128mm"
   viewBox="0 0 128 128"
   version="1.1"
   id="svg5"
   inkscape:version="1.1.1 (3bf5ae0d25, 2021-09-20)"
   sodipodi:docname="arh.svg"
   xmlns:inkscape="http://www.inkscape.org/namespaces/inkscape"
   xmlns:sodipodi="http://sodipodi.sourceforge.net/DTD/sodipodi-0.dtd"
   xmlns="http://www.w3.org/2000/svg"
   xmlns:svg="http://www.w3.org/2000/svg">
  <sodipodi:namedview
     id="namedview7"
     pagecolor="#ffffff"
     bordercolor="#666666"
     borderopacity="1.0"
     inkscape:pageshadow="2"
     inkscape:pageopacity="0.0"
     inkscape:pagecheckerboard="0"
     inkscape:document-units="mm"
     showgrid="false"
     inkscape:zoom="0.72337262"
     inkscape:cx="396.75265"
     inkscape:cy="451.35798"
     inkscape:window-width="1920"
     inkscape:window-height="1001"
     inkscape:window-x="-9"
     inkscape:window-y="-9"
     inkscape:window-maximized="1"
     inkscape:current-layer="layer1" />
  <defs
     id="defs2" />
  <g
     inkscape:label="Слой 1"
     inkscape:groupmode="layer"
     id="layer1">
    <path
       style="fill:#000000;stroke-width:0.236848"
       d="m 10.775594,119.82414 -0.52622,-0.56154 0.01757,-17.15556 0.01756,-17.155552 -0.6691514,0.642688 c -0.744513,0.715072 -1.585493,0.820727 -2.336317,0.293509 C 6.8284645,85.571302 3.6542478,80.021669 3.3211904,78.967994 3.2449893,78.726918 3.3225311,78.262888 3.4934299,77.936816 3.7325997,77.480567 28.824668,46.341448 31.44068,43.254433 l 0.552645,-0.652144 h 6.053448 6.053446 V 29.247186 c 0,-8.612346 0.09142,-13.850897 0.257436,-14.751198 0.499494,-2.708761 2.279731,-5.2894883 4.581735,-6.6419243 2.310317,-1.3573204 1.004821,-1.3117976 35.63351,-1.2426485 l 31.79427,0.063458 1.36836,0.5536857 c 2.89626,1.1719128 5.331,4.3140151 5.81357,7.5025891 0.23883,1.577998 0.17602,1.903057 -0.51665,2.674516 -0.47648,0.530677 -0.51744,0.533572 -7.53444,0.533572 h -7.05536 v 28.798635 28.798625 l 0.94621,1.095998 c 0.52041,0.602794 0.95769,1.222904 0.9717,1.378007 0.0141,0.155103 0.022,1.814036 0.0176,3.686529 -0.008,3.198 -0.0401,3.438951 -0.53984,3.972165 -0.29257,0.312207 -0.7289,0.567641 -0.96963,0.567641 -0.42185,0 -0.43702,0.597102 -0.41961,16.512464 l 0.0181,16.51245 -0.5266,0.56195 -0.5266,0.56194 H 59.357892 11.301813 Z m 14.626459,-13.09776 -0.02798,-9.864976 0.53357,-0.56938 0.533569,-0.56938 h 6.41937 c 6.133278,0 6.442445,0.02166 6.937082,0.483529 0.284742,0.265939 0.524291,0.612758 0.532334,0.770723 0.0081,0.157955 0.0019,4.635834 -0.01377,9.950824 l -0.02839,9.66365 h 5.809319 5.80932 V 98.621149 c 0,-16.529319 -0.03226,-18.01723 -0.402372,-18.556548 C 51.282794,79.742105 47.010553,74.42658 42.010228,68.252306 33.269947,57.46003 32.90272,57.043199 32.504313,57.462234 31.930842,58.065387 14.726492,79.340001 14.226238,80.064601 c -0.373338,0.540752 -0.40481,1.98348 -0.40481,18.556548 v 17.970221 h 5.804304 5.804304 z m 5.4395,-18.900648 c -3.208216,-0.911226 -5.188865,-3.470504 -5.379539,-6.951096 -0.09411,-1.717963 -0.03573,-2.079232 0.545985,-3.378716 0.748257,-1.671498 2.201793,-3.142782 3.857482,-3.904579 1.544909,-0.710824 4.446323,-0.71353 5.984336,-0.0053 1.61833,0.74491 3.029189,2.142949 3.792648,3.758197 1.381437,2.922689 0.669892,6.612275 -1.685867,8.741775 -0.557335,0.503807 -1.475977,1.121166 -2.041427,1.371922 -1.327271,0.588578 -3.693011,0.76021 -5.073618,0.368081 z m 3.712938,-3.97713 c 2.691845,-1.306358 2.762118,-5.085555 0.122223,-6.572964 -2.551369,-1.437538 -5.538152,0.349716 -5.515352,3.300316 0.01157,1.497143 0.712454,2.624008 2.046716,3.290637 1.205635,0.602359 2.07779,0.597672 3.346413,-0.01801 z m 2.212583,24.205558 v -8.537201 h -3.903125 -3.903125 v 8.537201 8.53721 h 3.903125 3.903125 z m 68.127276,-6.64004 V 86.236864 H 80.802609 c -23.79133,0 -24.097089,-0.0063 -24.519907,-0.474284 -0.235486,-0.260857 -0.518105,-0.474292 -0.628046,-0.474292 -0.109938,0 -0.19989,7.043196 -0.19989,15.651532 v 15.65155 h 24.719793 24.719791 z m -42.902474,7.09711 -0.623283,-0.49149 v -7.55421 -7.554198 l 0.623283,-0.491501 c 0.599342,-0.472616 0.897997,-0.491501 7.774353,-0.491501 6.876351,0 7.175002,0.01891 7.774343,0.491501 l 0.623285,0.491501 v 7.554198 7.55421 l -0.623285,0.49149 c -0.599341,0.47263 -0.897992,0.49151 -7.774343,0.49151 -6.876356,0 -7.175011,-0.0189 -7.774353,-0.49151 z m 12.623684,-8.0457 v -4.742886 h -4.849331 -4.849341 v 4.742886 4.74289 h 4.849341 4.849331 z m 8.192985,8.0457 -0.623283,-0.49149 v -7.55421 -7.554198 l 0.623283,-0.491501 c 0.599343,-0.472616 0.897994,-0.491501 7.774349,-0.491501 6.876358,0 7.175008,0.01891 7.774338,0.491501 l 0.62329,0.491501 v 7.554198 7.55421 l -0.62329,0.49149 c -0.59933,0.47263 -0.89798,0.49151 -7.774338,0.49151 -6.876355,0 -7.175006,-0.0189 -7.774349,-0.49151 z m 12.623682,-8.0457 v -4.742886 h -4.849333 -4.849336 v 4.742886 4.74289 h 4.849336 4.849333 z M 106.78677,81.493983 V 80.545409 H 83.273153 59.759532 L 58.595841,79.181823 C 57.955811,78.431858 51.924247,71.015159 45.192369,62.700285 38.460489,54.385401 32.916353,47.582323 32.872065,47.582323 c -0.04428,0 -5.78933,7.042675 -12.766764,15.650396 l -12.6862424,15.650396 0.539962,0.947732 c 0.29698,0.521249 0.612605,0.921947 0.701389,0.890433 0.08878,-0.03155 5.1290614,-6.193419 11.2006134,-13.693114 6.071553,-7.499696 11.314659,-13.92927 11.651345,-14.287949 0.730227,-0.777929 1.863902,-0.870911 2.54888,-0.209051 0.252215,0.243702 5.823276,7.073462 12.380135,15.177242 l 11.921564,14.73415 h 24.211918 24.211905 z m -2.40496,-4.935648 C 104.33841,76.452312 98.834372,69.622542 92.150522,61.381083 L 79.998081,46.396598 h -21.51119 c -17.146238,0 -21.475044,0.06014 -21.333074,0.296432 0.09796,0.163035 5.602483,6.992795 12.23227,15.17725 l 12.05416,14.880812 H 82.95046 c 11.83062,0 21.47472,-0.08677 21.43135,-0.192757 z M 104.89353,42.543 c -0.008,-15.866932 0.0797,-28.592694 0.19776,-28.993086 0.11576,-0.392496 0.49317,-1.27289 0.83869,-1.956448 l 0.62821,-1.24282 -27.030161,0.0027 -27.030176,0.0027 -1.199527,0.559951 c -1.428929,0.66704 -2.598099,1.999416 -3.042201,3.466874 -0.255063,0.842803 -0.32948,3.921268 -0.353988,14.643669 l -0.03103,13.576515 h 16.87412 16.874115 l 0.722784,0.770723 c 0.397526,0.423893 4.217652,5.092671 8.489183,10.375069 11.339651,14.023229 13.834511,17.074401 13.961311,17.074401 0.0625,0 0.10791,-12.72577 0.10091,-28.279482 z M 90.320103,34.458338 c -0.827344,-0.713432 -0.865091,-1.821189 -0.09024,-2.648047 l 0.55377,-0.590935 H 76.423866 62.06409 l 0.510607,0.69236 c 0.875755,1.187482 0.01792,2.864806 -1.465139,2.864806 -0.595738,0 -1.140411,-0.386589 -2.923545,-2.07501 -1.205272,-1.14126 -2.328769,-2.375708 -2.496658,-2.743216 -0.435947,-0.954293 -0.06145,-1.550427 2.525472,-4.020058 1.689474,-1.612881 2.318154,-2.070357 2.845142,-2.070357 1.583321,0 2.433667,1.61876 1.508986,2.872586 l -0.504865,0.684581 h 14.359776 14.359768 l -0.553769,-0.590936 c -0.774853,-0.826859 -0.737106,-1.934615 0.09024,-2.648047 1.159654,-0.999996 1.637094,-0.791257 4.361067,1.906677 2.138683,2.11823 2.48578,2.569173 2.48578,3.229455 0,0.660291 -0.347097,1.111234 -2.48578,3.229464 -2.723973,2.697925 -3.201413,2.906663 -4.361069,1.906677 z M 119.09452,13.21012 c -1.29566,-2.546058 -4.68712,-3.5638443 -7.35522,-2.20733 -1.16359,0.59159 -2.82355,2.310287 -2.82355,2.92346 0,0.12704 2.23282,0.218704 5.32725,0.218704 h 5.32726 z m -6.13308,106.60862 -0.53128,-0.56695 0.018,-44.376588 0.018,-44.376593 2.03788,-4.080602 c 1.12083,-2.244329 2.21146,-4.213066 2.42365,-4.374973 0.63005,-0.480753 1.78563,-0.36964 2.33091,0.224118 0.26949,0.293465 1.35213,2.265626 2.40585,4.382574 l 1.91587,3.849 0.0128,44.38189 0.0127,44.381874 -0.52626,0.56158 c -0.51802,0.55278 -0.59738,0.5616 -5.05659,0.5616 -4.47125,0 -4.53725,-0.008 -5.0616,-0.56693 z m 7.07231,-5.12454 v -1.89715 h -2.01071 -2.0107 v 1.89715 1.89717 h 2.0107 2.01071 z m 0,-7.58861 v -1.89717 h -2.01071 -2.0107 v 1.89717 1.89715 h 2.0107 2.01071 z m 0,-40.389809 v -34.69833 l -1.01174,-2.087576 -1.01176,-2.087567 -0.99895,2.107331 -0.99896,2.107321 v 34.678574 34.678586 h 2.0107 2.01071 z"
       id="path836" />
  </g>
</svg>
